HIERARCHY
ROOT Hips
{
	OFFSET 0.00000 0.00000 0.00000
	CHANNELS 6 Xposition Yposition Zposition Zrotation Yrotation Xrotation 
	JOINT LHipJoint
	{
		OFFSET 0 0 0
		CHANNELS 3 Zrotation Yrotation Xrotation
		JOINT LeftHip
		{
			OFFSET 1.27966 -1.91611 0.81506
			CHANNELS 3 Zrotation Yrotation Xrotation
			JOINT LeftKnee
			{
				OFFSET 2.49511 -6.85528 0.00000
				CHANNELS 3 Zrotation Yrotation Xrotation
				JOINT LeftAnkle
				{
					OFFSET 2.67286 -7.34045 0.00000
					CHANNELS 3 Zrotation Yrotation Xrotation
					JOINT LeftToe
					{
						OFFSET 0.22740 -0.62477 2.32102
						CHANNELS 3 Zrotation Yrotation Xrotation
						End Site
						{
							OFFSET 0.00000 -0.00000 1.20480
						}
					}
				}
			}
		}
	}
	JOINT RHipJoint
	{
		OFFSET 0 0 0
		CHANNELS 3 Zrotation Yrotation Xrotation
		JOINT RightHip
		{
			OFFSET -1.09666 -1.91611 0.81505
			CHANNELS 3 Zrotation Yrotation Xrotation
			JOINT RightKnee
			{
				OFFSET -2.51373 -6.90642 0.00000
				CHANNELS 3 Zrotation Yrotation Xrotation
				JOINT RightAnkle
				{
					OFFSET -2.70173 -7.42295 0.00000
					CHANNELS 3 Zrotation Yrotation Xrotation
					JOINT RightToe
					{
						OFFSET -0.22214 -0.61032 2.18267
						CHANNELS 3 Zrotation Yrotation Xrotation
						End Site
						{
							OFFSET -0.00000 -0.00000 1.13683
						}
					}
				}
			}
		}
	}
	JOINT lowerback
	{
		OFFSET 0 0 0
		CHANNELS 3 Zrotation Yrotation Xrotation
		JOINT Chest
		{
			OFFSET -0.00990 2.16804 -0.08389
			CHANNELS 3 Zrotation Yrotation Xrotation
			JOINT Chest2
			{
				OFFSET 0.06407 2.15456 0.07285
				CHANNELS 3 Zrotation Yrotation Xrotation
				JOINT lowerneck
				{
					OFFSET 0 0 0
					CHANNELS 3 Zrotation Yrotation Xrotation
					JOINT Neck
					{
						OFFSET -0.16931 1.61602 0.24462
						CHANNELS 3 Zrotation Yrotation Xrotation
						JOINT Head
						{
							OFFSET 0.21556 1.63376 -0.33896
							CHANNELS 3 Zrotation Yrotation Xrotation
							End Site
							{
								OFFSET 0.08444 1.69244 -0.14900
							}
						}
					}
				}
				JOINT LeftCollar
				{
					OFFSET 0 0 0
					CHANNELS 3 Zrotation Yrotation Xrotation
					JOINT LeftShoulder
					{
						OFFSET 2.89000 1.40150 -0.54392
CHANNELS 3 Zrotation Xrotation Yrotation
						JOINT LeftElbow
						{
OFFSET 0 -5.107550 0.000000
CHANNELS 3 Zrotation Xrotation Yrotation
							JOINT LeftWrist
							{
OFFSET 0 -3.362530 0.000000
CHANNELS 3 Zrotation Xrotation Yrotation
								JOINT lhand
								{
									OFFSET 0 0 0
CHANNELS 3 Zrotation Xrotation Yrotation
									JOINT LFingers
									{
OFFSET 0 -0.619090 0.000000
CHANNELS 3 Zrotation Xrotation Yrotation
										End Site
										{
OFFSET 0 -0.499120 0.000000
										}
									}
								}
								JOINT LThumb
								{
OFFSET 0 0.000000 0.000000
CHANNELS 3 Zrotation Xrotation Yrotation
									End Site
									{
OFFSET 0 -0.506750 0.506750
									}
								}
							}
						}
					}
				}
				JOINT RightCollar
				{
					OFFSET 0 0 0
					CHANNELS 3 Zrotation Yrotation Xrotation
					JOINT RightShoulder
					{
						OFFSET -2.65771 1.70968 -0.54312
CHANNELS 3 Zrotation Xrotation Yrotation
						JOINT RightElbow
						{
OFFSET 0 -5.273870 0.000000
CHANNELS 3 Zrotation Xrotation Yrotation
							JOINT RightWrist
							{
OFFSET 0 -3.401440 0.000000
CHANNELS 3 Zrotation Xrotation Yrotation
								JOINT rhand
								{
									OFFSET 0 0 0
CHANNELS 3 Zrotation Xrotation Yrotation
									JOINT RFingers
									{
OFFSET 0 -0.742820 0.000000
CHANNELS 3 Zrotation Xrotation Yrotation
										End Site
										{
OFFSET 0 -0.598880 0.000000
										}
									}
								}
								JOINT RThumb
								{
OFFSET 0 0.000000 0.000000
CHANNELS 3 Zrotation Xrotation Yrotation
									End Site
									{
OFFSET 0 -0.608030 0.608030
									}
								}
							}
						}
					}
				}
			}
		}
	}
}
MOTION
Frames: 4
Frame Time: 0.008333333333333333
9.851700 18.054100 -30.399600 1.789600 1.027000 -3.111300 0.000000 0.000000 0.000000 -25.078400 3.234900 -8.927100 1.645600 8.085200 22.973200 -0.069300 -12.610700 -7.898900 0.529900 -4.664800 -12.955000 0.000000 0.000000 0.000000 14.309400 -2.278900 -13.258400 -12.729400 -18.682300 68.282900 -0.005800 -6.615100 4.781000 -0.427300 4.195400 -11.627000 -4.013900 1.418400 12.384500 1.007100 1.395900 1.372100 3.089800 0.787900 -5.625900 -15.732700 -6.584000 -17.283800 9.698300 -7.327800 23.636500 5.098700 -3.602000 11.545900 -0.000000 -0.000000 0.000000 -0.558500 7.536300 -11.017200 16.319800 -25.952400 3.784800 12.323700 6.438900 -29.711600 0.000000 0.000000 0.000000 -7.125000 0.000000 0.000000 -21.267200 58.985000 7.480300 -0.000000 -0.000000 0.000000 -4.038300 4.131500 20.114400 -18.446900 -28.725700 -4.762100 -19.267600 -1.313800 -10.948100 0.000000 0.000000 0.000000 7.125000 0.000000 -0.000000 5.507400 18.429800 3.500000
9.829585 17.852230 -27.835085 3.118894 6.473061 -2.616764 0.000000 0.000000 0.000000 -25.594226 5.040174 1.455694 1.337022 7.321273 20.670923 -0.031409 -16.857623 -11.534679 0.191094 -2.815208 -7.764804 0.000000 0.000000 0.000000 12.764131 1.107787 -29.445222 -5.693997 -14.123460 43.737794 -0.137164 -6.028046 -11.647212 -0.410111 4.096078 -11.349325 -5.900049 -1.060996 12.114346 1.353859 -2.116682 1.156344 5.111059 -0.897623 -5.312567 -15.757111 -6.027188 -18.451298 9.348074 -6.245420 23.904453 5.145292 -3.135257 11.702022 0.000000 0.000000 0.000000 2.796374 -2.931671 -20.360879 17.870908 -27.991533 4.488492 15.468702 6.075985 -28.921251 0.000000 0.000000 0.000000 -7.125000 0.000000 0.000000 -17.416124 58.948761 6.052548 0.000000 0.000000 0.000000 -4.862654 6.347547 15.537719 -15.383648 -24.677349 -3.384785 -19.076233 1.049030 -15.189691 0.000000 0.000000 0.000000 7.125000 0.000000 0.000000 5.748844 14.009211 4.206981
9.631593 17.672521 -24.923648 3.543605 5.196895 -2.030033 0.000000 0.000000 0.000000 -24.610107 6.573324 14.965293 0.639905 5.117719 14.244610 0.205690 -12.385901 -11.227692 1.448804 -7.606607 -21.526592 0.000000 0.000000 0.000000 13.210679 6.826464 -26.207650 -1.539232 -7.831536 22.203796 -0.111133 -3.398754 -8.483702 -1.094230 6.647328 -18.674662 -6.969014 -1.313269 12.528829 1.606368 -2.601349 1.436827 6.075011 -1.127085 -5.121941 -14.269937 -5.634748 -21.704329 8.648393 -5.479225 24.467995 4.752232 -2.679075 12.369029 0.000000 0.000000 0.000000 3.789165 -5.481743 -24.284848 21.371179 -32.259026 6.246919 15.024016 5.531023 -30.474665 0.000000 0.000000 0.000000 -7.125000 0.000000 0.000000 -19.002963 60.319862 7.254809 0.000000 0.000000 0.000000 -3.447994 6.431956 7.915649 -12.088290 -19.936946 -2.132390 -20.050359 5.605416 -11.862276 0.000000 0.000000 0.000000 7.125000 0.000000 0.000000 4.975975 17.405066 3.271973
9.272639 18.035400 -21.364349 -2.502515 2.416853 -2.438644 0.000000 0.000000 0.000000 -16.229339 1.114161 4.232167 6.163223 14.581371 45.627252 1.492850 -1.647449 23.727629 0.952837 -6.209718 -17.396177 0.000000 0.000000 0.000000 23.453450 5.054012 -17.213121 -2.132511 -9.136807 26.224119 -0.076099 1.722423 -4.899543 -0.095129 1.988810 -5.474763 -1.656432 -0.995426 11.916644 3.507978 -1.334226 1.055464 4.856019 -0.580207 -5.455530 -14.233727 -4.854449 -23.587418 8.300574 -4.032316 25.996509 4.924561 -2.083026 13.147155 0.000000 0.000000 0.000000 0.982552 4.130500 -22.306875 21.181841 -32.040008 6.146131 13.177558 4.673159 -31.847411 0.000000 0.000000 0.000000 -7.125000 0.000000 0.000000 -22.079734 61.152157 8.933895 0.000000 0.000000 0.000000 -3.104105 7.903833 5.613767 -11.065521 -18.388577 -1.796558 -18.277301 8.353741 -11.637841 0.000000 0.000000 0.000000 7.125000 0.000000 0.000000 6.211272 17.784868 4.041133
